<?xml version="1.0" standalone="no"?>
<!DOCTYPE svg PUBLIC "-//W3C//DTD SVG 20010904//EN"
 "http://www.w3.org/TR/2001/REC-SVG-20010904/DTD/svg10.dtd">

<svg version="1.0" xmlns="http://www.w3.org/2000/svg"
 width="512.000000pt" height="512.000000pt" viewBox="0 0 512.000000 512.000000"
 preserveAspectRatio="xMidYMid meet">

<g
  transform="translate(0.000000,512.000000) scale(0.100000,-0.100000)"
  fill="currentColor"
  stroke="none">
<path d="M2385 4654 c-22 -2 -94 -9 -160 -15 -279 -26 -584 -108 -831 -224
-411 -192 -710 -472 -894 -839 -102 -202 -168 -431 -185 -637 -4 -48 -10 -91
-14 -96 -3 -6 -30 -23 -60 -38 -30 -15 -78 -51 -107 -79 -153 -153 -174 -386
-53 -570 l31 -46 -31 -46 c-151 -228 -73 -532 166 -653 61 -30 61 -31 68 -83
43 -316 254 -587 561 -722 143 -62 277 -99 469 -128 132 -19 2298 -19 2430 0
192 29 326 66 469 128 307 135 518 406 561 722 7 52 7 53 68 83 239 121 317
425 166 653 l-31 46 31 46 c121 184 100 417 -53 570 -29 28 -77 64 -107 79
-30 15 -57 32 -60 38 -4 5 -10 48 -14 96 -17 206 -83 435 -185 637 -131 260
-314 471 -560 646 -306 218 -697 361 -1125 414 -117 14 -471 26 -550 18z m442
-309 c915 -93 1541 -595 1668 -1339 8 -49 15 -102 15 -117 l0 -29 -1950 0
-1950 0 0 29 c0 117 71 374 145 526 220 451 676 770 1275 891 255 52 537 66
797 39z m-1987 -1935 l155 -149 -288 -1 c-269 0 -290 1 -327 20 -45 23 -80 80
-80 130 0 48 35 107 78 129 31 17 57 20 172 20 l135 0 155 -149z m1090 -115
c-146 -146 -268 -265 -272 -265 -4 0 -128 119 -275 265 l-268 264 540 1 540 0
-265 -265z m1807 0 c-147 -146 -271 -265 -275 -265 -4 0 -126 119 -272 265
l-265 265 540 0 540 -1 -268 -264z m1003 245 c45 -23 80 -80 80 -130 0 -50
-35 -107 -80 -130 -37 -19 -58 -20 -327 -20 l-288 1 155 149 155 149 133 1
c114 0 138 -3 172 -20z m-2060 -165 l115 -115 -235 0 -235 0 115 115 c63 63
117 115 120 115 3 0 57 -52 120 -115z m-1255 -546 c72 -72 146 -139 165 -149
35 -19 29 -19 -568 -20 -585 0 -604 1 -642 20 -45 23 -80 80 -80 130 0 48 35
107 78 129 35 19 59 20 477 21 l440 0 130 -131z m1790 10 c66 -67 140 -134
164 -150 l45 -29 -864 0 -864 0 45 29 c24 16 98 83 164 150 l120 121 535 0
535 0 120 -121z m1525 101 c45 -23 80 -80 80 -130 0 -50 -35 -107 -80 -130
-38 -19 -57 -20 -642 -20 -597 1 -603 1 -568 20 19 10 93 77 165 149 l130 131
438 0 c419 0 439 -1 477 -20z m-241 -619 c-66 -293 -307 -472 -721 -538 -104
-17 -206 -18 -1218 -18 -1012 0 -1114 1 -1218 18 -414 66 -655 245 -721 538
l-9 39 1948 0 1948 0 -9 -39z"/>
<path d="M2038 3889 c-43 -22 -78 -81 -78 -129 0 -50 35 -107 80 -130 21 -11
53 -20 70 -20 76 0 150 74 150 150 0 50 -35 107 -80 130 -49 25 -94 25 -142
-1z"/>
<path d="M2938 3889 c-43 -22 -78 -81 -78 -129 0 -50 35 -107 80 -130 21 -11
53 -20 70 -20 17 0 49 9 70 20 45 23 80 80 80 130 0 50 -35 107 -80 130 -49
25 -94 25 -142 -1z"/>
<path d="M1438 3439 c-43 -22 -78 -81 -78 -129 0 -50 35 -107 80 -130 21 -11
53 -20 70 -20 76 0 150 74 150 150 0 50 -35 107 -80 130 -49 25 -94 25 -142
-1z"/>
<path d="M2488 3439 c-43 -22 -78 -81 -78 -129 0 -50 35 -107 80 -130 21 -11
53 -20 70 -20 76 0 150 74 150 150 0 50 -35 107 -80 130 -49 25 -94 25 -142
-1z"/>
<path d="M3538 3439 c-43 -22 -78 -81 -78 -129 0 -50 35 -107 80 -130 21 -11
53 -20 70 -20 50 0 107 35 130 80 11 21 20 53 20 70 0 50 -35 107 -80 130 -49
25 -94 25 -142 -1z"/>
</g>
</svg>
