<?xml version="1.0" standalone="no"?>
<!DOCTYPE svg PUBLIC "-//W3C//DTD SVG 20010904//EN"
 "http://www.w3.org/TR/2001/REC-SVG-20010904/DTD/svg10.dtd">
<svg version="1.0" xmlns="http://www.w3.org/2000/svg"
 width="512.000000pt" height="512.000000pt" viewBox="0 0 512.000000 512.000000"
 preserveAspectRatio="xMidYMid meet">

<g transform="translate(0.000000,512.000000) scale(0.100000,-0.100000)"
fill="#000000" stroke="none">
<path d="M2217 5106 c-28 -21 -37 -71 -37 -198 l0 -118 -39 0 c-30 0 -46 -7
-69 -29 -34 -34 -42 -70 -42 -191 0 -125 8 -157 46 -194 l34 -33 0 -224 c0
-247 -8 -302 -59 -436 -58 -149 -146 -265 -289 -380 -106 -86 -124 -111 -101
-151 20 -36 55 -53 87 -41 41 16 198 146 255 212 75 86 112 144 162 250 78
166 105 321 105 623 l0 142 120 3 c103 4 122 7 139 24 31 32 35 67 11 98 l-21
27 -165 0 -164 0 0 75 0 75 370 0 370 0 0 -75 0 -75 -80 0 c-69 0 -82 -3 -100
-22 -43 -47 -12 -113 60 -124 l40 -7 0 -141 c0 -302 27 -458 105 -623 76 -161
157 -263 304 -383 119 -96 187 -167 244 -256 99 -153 137 -292 137 -501 l0
-143 -1080 0 -1080 0 0 139 c0 186 30 316 104 456 22 42 20 72 -9 100 -48 49
-93 29 -139 -63 -42 -85 -70 -166 -93 -272 -17 -80 -18 -161 -18 -1270 0 -972
2 -1192 14 -1223 19 -55 68 -106 126 -133 l50 -24 1045 0 1045 0 50 24 c59 28
97 66 122 121 17 38 18 105 21 1135 3 1181 -1 1308 -43 1455 -65 226 -173 384
-380 555 -189 156 -265 261 -331 460 -27 82 -28 93 -32 338 l-4 253 35 34 c39
38 47 69 47 195 0 121 -8 157 -42 191 -23 22 -39 29 -69 29 l-39 0 0 118 c0
127 -9 177 -37 198 -26 20 -660 20 -686 0z m563 -226 l0 -90 -220 0 -220 0 0
90 0 90 220 0 220 0 0 -90z m860 -3395 l0 -655 -79 0 c-74 0 -81 -2 -100 -26
-27 -34 -26 -57 2 -90 21 -24 32 -27 100 -32 l77 -5 0 -239 0 -239 -25 -24
-24 -25 -1031 0 -1031 0 -24 25 -25 24 0 240 0 241 874 2 c843 3 875 4 895 22
26 23 28 81 4 108 -15 17 -56 18 -895 18 l-878 0 0 655 0 655 1080 0 1080 0 0
-655z"/>
<path d="M2486 2028 c-14 -13 -48 -69 -76 -125 -63 -126 -77 -136 -223 -157
-60 -9 -117 -21 -128 -27 -28 -14 -59 -69 -59 -102 0 -42 14 -64 105 -157 98
-101 103 -117 81 -245 -24 -137 -22 -161 18 -201 52 -52 101 -48 220 16 123
67 148 67 273 0 112 -60 163 -66 212 -24 42 35 47 75 26 204 -10 60 -14 121
-11 136 4 16 45 66 90 113 92 94 106 116 106 158 0 33 -31 88 -59 102 -11 6
-68 18 -128 27 -146 21 -160 31 -223 157 -63 126 -84 147 -150 147 -37 0 -55
-6 -74 -22z m111 -231 c17 -34 43 -77 57 -94 39 -46 133 -90 211 -98 36 -4 65
-10 65 -12 0 -3 -29 -36 -65 -74 -94 -100 -108 -159 -79 -332 l7 -38 -73 38
c-68 35 -78 38 -159 38 -80 0 -91 -3 -160 -39 l-74 -38 7 38 c29 174 15 233
-79 333 -36 38 -65 71 -65 74 0 2 29 8 65 12 78 8 172 52 211 98 14 17 40 60
57 94 17 35 34 63 37 63 3 0 20 -28 37 -63z"/>
</g>
</svg>
