<?xml version="1.0" standalone="no"?>
<!DOCTYPE svg PUBLIC "-//W3C//DTD SVG 20010904//EN"
 "http://www.w3.org/TR/2001/REC-SVG-20010904/DTD/svg10.dtd">
<svg version="1.0" xmlns="http://www.w3.org/2000/svg"
 width="512.000000pt" height="512.000000pt" viewBox="0 0 512.000000 512.000000"
 preserveAspectRatio="xMidYMid meet">

<g transform="translate(0.000000,512.000000) scale(0.100000,-0.100000)"
fill="#000000" stroke="none">
<path d="M1898 5099 c-43 -22 -78 -81 -78 -131 0 -61 37 -108 120 -152 122
-65 222 -181 255 -293 5 -18 1 -23 -27 -31 -118 -34 -220 -94 -317 -186 -124
-119 -195 -259 -226 -447 -5 -34 -10 -38 -63 -57 -31 -12 -374 -131 -761 -266
-387 -135 -717 -254 -734 -263 -16 -10 -38 -34 -48 -53 -18 -33 -19 -74 -19
-868 0 -814 0 -834 20 -872 11 -22 34 -47 52 -56 56 -29 4071 -1424 4099
-1424 88 0 354 102 485 185 75 48 203 172 260 251 98 137 169 331 193 529 7
60 11 446 11 1167 0 1192 0 1190 -64 1441 -77 298 -218 566 -413 784 -127 142
-376 330 -452 340 -33 5 -138 -29 -645 -206 -333 -116 -612 -211 -619 -211 -7
0 -29 16 -48 36 -67 71 -186 139 -303 173 -33 10 -63 24 -67 32 -3 8 -18 52
-33 99 -60 196 -207 367 -399 463 -84 42 -124 46 -179 16z m2336 -773 c218
-165 400 -427 496 -715 64 -190 84 -303 84 -476 1 -348 -123 -663 -374 -953
-71 -82 -230 -228 -274 -251 -19 -11 -74 6 -440 133 -449 157 -477 164 -537
123 -68 -45 -69 -53 -69 -431 0 -332 0 -339 -22 -378 -42 -74 -126 -97 -200
-56 -79 45 -78 39 -78 540 0 487 0 486 -62 531 -24 18 -492 183 -1720 608
-230 79 -418 146 -418 149 0 5 150 58 844 299 l198 69 20 -47 c55 -123 175
-262 290 -335 109 -69 219 -104 358 -113 438 -28 814 348 787 787 -3 52 -13
117 -21 145 -9 27 -12 52 -8 56 4 3 48 20 97 37 118 40 667 232 820 287 66 23
128 43 138 44 10 0 51 -23 91 -53z m-1772 -117 c87 -18 158 -58 223 -123 258
-259 118 -696 -244 -758 -141 -24 -281 22 -386 127 -178 177 -178 455 0 630
113 112 257 155 407 124z m-1027 -1664 c534 -185 996 -346 1028 -357 l57 -20
0 -240 0 -239 -22 6 c-13 4 -72 24 -133 45 -60 22 -326 114 -590 205 -264 92
-700 243 -968 336 -268 93 -492 169 -497 169 -6 0 -10 94 -10 244 l0 245 83
-28 c45 -16 519 -180 1052 -366z m3383 -1045 l-4 -535 -26 -97 c-66 -244 -224
-425 -443 -508 l-25 -10 0 659 0 658 83 65 c100 80 282 266 357 366 l55 72 3
-67 c2 -38 2 -309 0 -603z m-3267 205 l976 -339 17 -54 c85 -278 422 -397 671
-237 l51 32 377 -131 377 -131 0 -242 0 -242 -67 24 c-38 12 -219 76 -403 140
-477 166 -688 240 -1550 540 -808 282 -811 283 -1353 470 l-347 120 0 242 0
243 138 -49 c75 -26 576 -200 1113 -386z m2181 39 l288 -99 0 -242 0 -243 -24
10 c-14 5 -136 48 -273 96 -136 47 -261 92 -278 99 l-30 12 3 237 c2 181 6
237 15 234 7 -3 141 -49 299 -104z"/>
<path d="M4048 3929 c-43 -22 -78 -81 -78 -129 0 -50 35 -107 80 -130 21 -11
53 -20 70 -20 17 0 49 9 70 20 45 23 80 80 80 130 0 50 -35 107 -80 130 -49
25 -94 25 -142 -1z"/>
<path d="M3448 3329 c-43 -22 -78 -81 -78 -129 0 -50 35 -107 80 -130 21 -11
53 -20 70 -20 17 0 49 9 70 20 45 23 80 80 80 130 0 50 -35 107 -80 130 -49
25 -94 25 -142 -1z"/>
<path d="M4248 3229 c-43 -22 -78 -81 -78 -129 0 -50 35 -107 80 -130 21 -11
53 -20 70 -20 50 0 107 35 130 80 11 21 20 53 20 70 0 50 -35 107 -80 130 -49
25 -94 25 -142 -1z"/>
<path d="M3748 2629 c-43 -22 -78 -81 -78 -129 0 -50 35 -107 80 -130 21 -11
53 -20 70 -20 76 0 150 74 150 150 0 50 -35 107 -80 130 -49 25 -94 25 -142
-1z"/>
</g>
</svg>
