<?xml version="1.0" encoding="UTF-8"?>
<svg version="1.1" xmlns="http://www.w3.org/2000/svg" width="512" height="512">
<path d="M0 0 C7.72108481 5.939296 10.77645588 14.72647331 12.83203125 23.9765625 C13.45095504 32.95095747 13.13621199 41.46639888 11.76953125 50.3515625 C11.6519043 51.13112305 11.53427734 51.91068359 11.41308594 52.71386719 C10.50260427 58.22100055 8.98629785 63.35840392 7.08203125 68.6015625 C9.39203125 68.9315625 11.70203125 69.2615625 14.08203125 69.6015625 C14.29214844 68.9415625 14.50226563 68.2815625 14.71875 67.6015625 C16.58047405 63.50470271 19.17387726 60.16769179 21.89453125 56.6015625 C22.67666992 55.55355469 22.67666992 55.55355469 23.47460938 54.484375 C32.00740458 43.19253615 32.00740458 43.19253615 38.08203125 41.6015625 C45.53513286 40.92400781 49.74516122 43.33063901 55.33203125 47.9765625 C61.06257114 53.18969418 65.53171675 59.36981654 70.08203125 65.6015625 C71.12359375 65.04726562 72.16515625 64.49296875 73.23828125 63.921875 C85.43594062 57.66379571 97.67245248 53.4074964 111.55859375 56.72265625 C120.43767526 59.8152156 125.89816196 64.87725396 131.08203125 72.6015625 C131.8296875 72.25222656 132.57734375 71.90289062 133.34765625 71.54296875 C134.3325 71.08792969 135.31734375 70.63289063 136.33203125 70.1640625 C137.3065625 69.71160156 138.28109375 69.25914063 139.28515625 68.79296875 C146.86972669 65.56211123 155.59790787 65.14837437 163.45703125 67.6953125 C173.67166805 72.49619179 178.97364994 79.22031712 183.08203125 89.6015625 C186.58966761 100.63060702 188.27913744 111.23641747 188.26953125 122.7890625 C188.27017578 123.60479736 188.27082031 124.42053223 188.27148438 125.26098633 C188.20915045 132.5051803 187.38517542 139.46917523 186.08203125 146.6015625 C186.68789063 146.61574219 187.29375 146.62992188 187.91796875 146.64453125 C195.8926391 147.09847402 203.4217367 149.33477135 209.01953125 155.3515625 C215.06296417 164.8745477 215.08218509 174.71362828 213.08203125 185.6015625 C213.72269531 186.08625 214.36335938 186.5709375 215.0234375 187.0703125 C224.49216459 194.40822321 231.0724222 200.73243944 234.08203125 212.6015625 C234.60999305 217.44930771 234.6046603 222.22960844 234.51953125 227.1015625 C234.51238098 227.77419128 234.50523071 228.44682007 234.49786377 229.13983154 C233.93475132 280.50081988 220.48221301 335.44904223 190.08203125 377.6015625 C189.39753906 378.55933594 188.71304687 379.51710938 188.0078125 380.50390625 C176.96665476 395.58886324 164.75994324 408.99038902 150.08203125 420.6015625 C148.56416016 421.82746094 148.56416016 421.82746094 147.015625 423.078125 C139.67309672 428.9367064 132.0014763 433.92944626 123.84863281 438.58886719 C122.6105976 439.29856454 121.37863163 440.01890582 120.15136719 440.74707031 C115.30198845 443.6015625 115.30198845 443.6015625 113.08203125 443.6015625 C113.10821533 444.49875 113.13439941 445.3959375 113.16137695 446.3203125 C113.24712798 449.68262095 113.30953066 453.04375044 113.35668945 456.40673828 C113.38167361 457.85581924 113.41567394 459.30477625 113.45922852 460.75341797 C113.89467999 475.62024362 113.89467999 475.62024362 109.60083008 481.1328125 C107.09047179 483.5604472 104.41853516 485.18259431 101.26953125 486.6015625 C100.58721436 486.92423096 99.90489746 487.24689941 99.2019043 487.5793457 C67.40941946 502.04127501 30.82102991 508.65679383 -3.953125 508.8046875 C-5.06222229 508.81170181 -6.17131958 508.81871613 -7.31402588 508.82594299 C-10.86954865 508.8433385 -14.424905 508.84979423 -17.98046875 508.8515625 C-19.19382904 508.85223724 -20.40718933 508.85291199 -21.65731812 508.85360718 C-38.9280957 508.83832014 -55.86281657 508.58781651 -72.91796875 505.6015625 C-73.94374023 505.42995605 -74.96951172 505.25834961 -76.02636719 505.08154297 C-135.51400247 494.91248341 -135.51400247 494.91248341 -149.27734375 478.84765625 C-152.3965847 472.8013015 -151.32643981 465.29218915 -151.16796875 458.6640625 C-151.14787852 457.20249835 -151.12963219 455.74090764 -151.11328125 454.27929688 C-151.06947211 450.71949476 -151.00058421 447.16069996 -150.91796875 443.6015625 C-151.67231201 443.30749512 -152.42665527 443.01342773 -153.20385742 442.71044922 C-178.82320158 432.24332129 -201.94929663 410.97583626 -218.91796875 389.6015625 C-219.67722656 388.6940625 -220.43648437 387.7865625 -221.21875 386.8515625 C-249.49887379 352.04525629 -263.54604973 307.34478659 -269.91796875 263.6015625 C-270.0365625 262.79396484 -270.15515625 261.98636719 -270.27734375 261.15429688 C-271.7401362 250.67965806 -272.15055323 240.17141208 -272.26843262 229.60546875 C-272.29230578 227.59489702 -272.33196307 225.58453216 -272.37207031 223.57421875 C-272.39116332 212.90395276 -270.88627676 203.81587904 -263.29296875 195.8515625 C-262.42671875 194.93632812 -261.56046875 194.02109375 -260.66796875 193.078125 C-258.00020891 190.67562537 -255.3919308 189.013748 -252.29296875 187.2265625 C-249.73861286 185.71889996 -249.73861286 185.71889996 -247.91796875 183.6015625 C-247.3310854 180.21264211 -247.47936733 177.24113126 -247.73828125 173.81640625 C-248.10443901 167.26536625 -245.82988239 162.38831019 -241.85546875 157.2890625 C-237.92942743 153.13061282 -233.4800669 150.85965613 -227.91796875 149.6015625 C-225.58534055 149.54420279 -223.25029351 149.53296471 -220.91796875 149.6015625 C-221.06234375 148.74175781 -221.20671875 147.88195312 -221.35546875 146.99609375 C-224.09067318 129.57816001 -224.09067318 129.57816001 -222.91796875 122.6015625 C-220.45698496 119.42832855 -219.50719244 118.69798092 -215.48046875 118.0390625 C-210.81032746 118.77645323 -209.74829225 119.81542483 -206.91796875 123.6015625 C-205.91669675 127.41530299 -205.57605711 131.24310196 -205.23046875 135.1640625 C-205.00745235 137.32835741 -204.78221733 139.49242493 -204.5546875 141.65625 C-204.3987915 143.2026416 -204.3987915 143.2026416 -204.23974609 144.78027344 C-203.7550609 149.02991088 -202.91734178 153.16428356 -201.95703125 157.33203125 C-201.90276512 160.48489351 -203.07856467 162.10152738 -204.91796875 164.6015625 C-208.78890918 166.53703272 -213.87204414 165.93503346 -218.17773438 166.03125 C-222.81430214 166.21352293 -226.24148206 166.45852682 -229.91796875 169.6015625 C-232.68798005 175.4990059 -230.24465399 182.37086757 -228.26953125 188.1484375 C-222.92844578 201.79444779 -215.42220422 213.8950232 -205.35546875 224.5390625 C-202.08090769 228.09808038 -200.72151319 230.59194563 -200.91796875 235.6015625 C-201.48046875 237.59765625 -201.48046875 237.59765625 -202.91796875 239.6015625 C-205.3095234 240.85182368 -207.5451502 241.88211213 -210.04296875 242.8515625 C-211.03103516 243.25375 -211.03103516 243.25375 -212.0390625 243.6640625 C-213.66049178 244.3220338 -215.28862616 244.96343877 -216.91796875 245.6015625 C-213.99652729 247.54919014 -211.75538994 248.40904768 -208.4296875 249.44140625 C-207.33640137 249.78107422 -206.24311523 250.12074219 -205.11669922 250.47070312 C-203.95799316 250.82326172 -202.79928711 251.17582031 -201.60546875 251.5390625 C-200.43387207 251.89806641 -199.26227539 252.25707031 -198.05517578 252.62695312 C-190.07196243 255.03839903 -182.14064332 257.16633203 -173.91796875 258.6015625 C-173.94117188 257.60898437 -173.964375 256.61640625 -173.98828125 255.59375 C-174.25134672 239.64367541 -172.92516201 222.19864149 -164.41796875 208.2265625 C-162.82620193 204.37979267 -162.7443611 204.0985983 -163.953125 200.45703125 C-164.2413916 199.57402344 -164.5296582 198.69101563 -164.82666016 197.78125 C-165.18679199 196.73195312 -165.54692383 195.68265625 -165.91796875 194.6015625 C-166.3561381 193.30735296 -166.79411388 192.01307786 -167.23193359 190.71875 C-169.01757218 185.46716707 -170.83643652 180.22715266 -172.65405273 174.98657227 C-182.90508555 145.40087369 -182.90508555 145.40087369 -181.91796875 139.6015625 C-180.41796875 137.1640625 -180.41796875 137.1640625 -177.91796875 135.6015625 C-175.1132792 134.99234715 -172.67060066 134.73598879 -169.91796875 135.6015625 C-166.13537101 139.56570972 -164.62439426 143.54740918 -163.0078125 148.6484375 C-162.75423477 149.41907532 -162.50065704 150.18971313 -162.23939514 150.98370361 C-161.43477035 153.43652821 -160.64487659 155.89380356 -159.85546875 158.3515625 C-159.32194262 159.98729884 -158.78744623 161.62271904 -158.25195312 163.2578125 C-157.26080705 166.28812307 -156.27559012 169.32022419 -155.29663086 172.35449219 C-153.86618964 176.77992987 -152.39555931 181.19167575 -150.91796875 185.6015625 C-150.25796875 184.9209375 -149.59796875 184.2403125 -148.91796875 183.5390625 C-146.6075559 181.23525083 -144.22439221 179.02728275 -141.79296875 176.8515625 C-141.13039062 176.25859375 -140.4678125 175.665625 -139.78515625 175.0546875 C-135.24295864 171.51975546 -129.38350985 172.0739094 -123.91796875 172.6015625 C-114.62927546 176.6084498 -108.85499994 188.03057485 -103.33056641 196.16210938 C-99.8423575 201.2906423 -96.25356282 206.33570869 -92.60546875 211.3515625 C-87.23420273 218.73987941 -81.97035421 226.19779477 -76.76245117 233.70214844 C-73.61714371 238.22291823 -70.39840823 242.65127883 -66.99975586 246.98583984 C-65.91796875 248.6015625 -65.91796875 248.6015625 -65.91796875 250.6015625 C-65.25796875 250.6015625 -64.59796875 250.6015625 -63.91796875 250.6015625 C-63.79752197 250.05918945 -63.6770752 249.51681641 -63.55297852 248.95800781 C-63.38596436 248.20616211 -63.2189502 247.45431641 -63.046875 246.6796875 C-62.86398926 245.85533203 -62.68110352 245.03097656 -62.49267578 244.18164062 C-62.12912761 242.5495348 -61.76321882 240.91795145 -61.39404297 239.28710938 C-55.62665532 215.79232077 -55.62665532 215.79232077 -60.37109375 192.7578125 C-61.73961229 190.49654407 -61.73961229 190.49654407 -63.91796875 189.6015625 C-68.39247918 189.63801472 -72.54664803 190.25243042 -76.60546875 192.1640625 C-80.15373722 193.70387712 -82.1121806 194.2634387 -85.91796875 193.6015625 C-89.22667101 191.36114079 -90.63081743 190.00229414 -91.44238281 186.04345703 C-91.72294951 182.83165139 -91.87109887 179.6362143 -91.98046875 176.4140625 C-92.92811598 159.40833833 -94.96128403 140.48002981 -105.91796875 126.6015625 C-109.51781015 124.20166823 -110.66895003 123.96020118 -114.91796875 124.6015625 C-118.99767889 126.99339257 -122.32553554 129.96681263 -125.54296875 133.4140625 C-128.43059408 136.07371741 -130.01037725 136.6015625 -133.91796875 136.6015625 C-139.20105461 134.37302954 -140.95926478 130.60154272 -143.54296875 125.7890625 C-152.93953999 109.0874149 -165.09245669 93.34320623 -183.16796875 85.6015625 C-188.32448745 84.22649085 -191.76530194 84.44647299 -196.48046875 86.9765625 C-199.60384767 90.34020134 -201.39904548 94.02506178 -203.390625 98.140625 C-205.05293258 100.81902341 -205.95221318 101.64706645 -208.91796875 102.6015625 C-212.5985765 102.47241837 -214.98964525 102.38015641 -217.85546875 99.9765625 C-219.4400156 96.43463425 -219.47406591 94.49424259 -218.91796875 90.6015625 C-214.94309622 81.03085879 -209.31107283 73.81403955 -199.91015625 69.328125 C-190.77553854 65.99667619 -180.58771728 67.69167591 -171.91796875 71.6015625 C-171.43585938 70.97507812 -170.95375 70.34859375 -170.45703125 69.703125 C-169.82539063 68.88585937 -169.19375 68.06859375 -168.54296875 67.2265625 C-167.60324219 66.00839844 -167.60324219 66.00839844 -166.64453125 64.765625 C-164.91796875 62.6015625 -164.91796875 62.6015625 -162.91796875 60.6015625 C-162.87657811 57.60074142 -162.93060485 54.65910223 -163.04296875 51.6640625 C-163.26265858 39.03307826 -159.90199877 28.91885536 -151.03515625 19.62890625 C-141.11516902 10.46750628 -130.576759 7.99786646 -117.41015625 8.2890625 C-107.35339104 8.79253009 -98.02415076 13.49538049 -90.91796875 20.6015625 C-88.32023845 20.69188065 -88.32023845 20.69188065 -85.35546875 20.4765625 C-77.43021805 20.3338509 -72.08381365 22.79825922 -65.91796875 27.6015625 C-65.21414062 26.79074219 -64.5103125 25.97992187 -63.78515625 25.14453125 C-49.00132429 8.43115915 -23.64605217 -14.03861804 0 0 Z M-59.89453125 46.17578125 C-60.91796875 47.6015625 -60.91796875 47.6015625 -61.91796875 48.6015625 C-65.16796875 48.9765625 -65.16796875 48.9765625 -68.91796875 48.6015625 C-71.35546875 46.5390625 -71.35546875 46.5390625 -73.91796875 43.6015625 C-75.22527633 42.28356119 -76.56042387 40.99275856 -77.91796875 39.7265625 C-78.55734375 39.11039063 -79.19671875 38.49421875 -79.85546875 37.859375 C-81.87604185 36.36685437 -81.87604185 36.36685437 -84.44921875 36.6953125 C-90.53270788 38.92849205 -93.93920937 45.18581586 -96.60546875 50.7890625 C-97.39833319 52.71765169 -98.16806492 54.65586609 -98.91796875 56.6015625 C-99.38203125 57.6946875 -99.84609375 58.7878125 -100.32421875 59.9140625 C-102.76343756 65.76347855 -102.76343756 65.76347855 -102.07421875 71.78125 C-100.61717158 73.71101827 -100.61717158 73.71101827 -98.84765625 75.51953125 C-88.30543549 86.89403259 -86.31565437 99.85354617 -86.77954102 114.60864258 C-86.91796875 116.6015625 -86.91796875 116.6015625 -87.5546875 120.34375 C-87.93968598 123.79631704 -87.68679169 125.09177742 -85.98046875 128.0390625 C-85.60019531 128.71839844 -85.21992188 129.39773437 -84.828125 130.09765625 C-84.52777344 130.59394531 -84.22742188 131.09023437 -83.91796875 131.6015625 C-81.75363799 128.84963596 -80.04099338 126.10791014 -78.45703125 122.98828125 C-77.99272705 122.08247314 -77.52842285 121.17666504 -77.05004883 120.2434082 C-76.5527124 119.26847412 -76.05537598 118.29354004 -75.54296875 117.2890625 C-63.78640046 94.54417691 -51.13436063 71.92615032 -36.91796875 50.6015625 C-33.44651642 49.76584249 -30.96146999 49.24457523 -27.54296875 50.4140625 C-25.91796875 51.6015625 -25.91796875 51.6015625 -24.91796875 53.6015625 C-24.41852789 58.69358907 -25.59211887 61.46241529 -28.21484375 65.79296875 C-28.73176285 66.65963417 -28.73176285 66.65963417 -29.25912476 67.54380798 C-29.99903628 68.78088147 -30.74490195 70.0144098 -31.49615479 71.24462891 C-32.68529547 73.1924437 -33.85807516 75.14928391 -35.02685547 77.109375 C-36.59517575 79.73763003 -38.16857752 82.36270537 -39.74707031 84.98486328 C-48.95061578 100.29294398 -57.38577934 115.96297053 -65.46484375 131.88671875 C-67.44797379 135.78864065 -69.47162043 139.63343498 -71.68359375 143.41015625 C-77.18739216 152.98272411 -77.8432076 160.80512502 -75.91796875 171.6015625 C-75.42296875 172.5915625 -75.42296875 172.5915625 -74.91796875 173.6015625 C-69.83003125 174.66502485 -64.88040808 175.4251462 -59.91796875 173.6015625 C-55.26599187 169.7738339 -52.3970305 164.1370332 -49.37841797 159.01367188 C-47.05114051 155.16989031 -44.41926087 151.55695674 -41.79296875 147.9140625 C-40.80193639 146.51534847 -39.81233662 145.11561823 -38.82421875 143.71484375 C-38.34339844 143.03502441 -37.86257812 142.35520508 -37.3671875 141.65478516 C-35.91110096 139.59183236 -34.4611653 137.524653 -33.01171875 135.45703125 C-32.10564255 134.17175246 -31.19940065 132.88659046 -30.29296875 131.6015625 C-29.87901855 131.00770752 -29.46506836 130.41385254 -29.03857422 129.80200195 C-26.14502336 125.71508981 -26.14502336 125.71508981 -23.91796875 124.6015625 C-20.37565814 124.21652874 -18.55539533 124.18220291 -15.54296875 126.1640625 C-13.25522104 129.59568406 -13.43881312 131.51415666 -13.91796875 135.6015625 C-15.46853419 138.43576333 -17.43213306 140.8616246 -19.48046875 143.3515625 C-20.53245991 144.65160478 -21.57591804 145.95861355 -22.609375 147.2734375 C-23.07545166 147.8415918 -23.54152832 148.40974609 -24.02172852 148.99511719 C-24.31748779 149.52524414 -24.61324707 150.05537109 -24.91796875 150.6015625 C-24.58796875 151.5915625 -24.25796875 152.5815625 -23.91796875 153.6015625 C-16.44638498 156.65485394 -5.67210813 155.33425377 1.58203125 152.4765625 C11.50376129 147.70189616 17.12660492 140.98508493 21.2265625 130.7421875 C23.57027201 122.13788408 22.92802292 112.91932074 19.4453125 104.75 C17.67780286 101.96452635 15.47167925 99.86043374 13.08203125 97.6015625 C12.47875 98.51679687 11.87546875 99.43203125 11.25390625 100.375 C10.44709111 101.57584114 9.63977295 102.77634442 8.83203125 103.9765625 C8.43628906 104.57984375 8.04054688 105.183125 7.6328125 105.8046875 C3.76982048 111.50418392 3.76982048 111.50418392 0.08203125 112.6015625 C-3.54296875 112.4140625 -3.54296875 112.4140625 -6.91796875 111.6015625 C-9.47929736 107.75956958 -9.50933722 106.17542799 -8.91796875 101.6015625 C-7.22778869 98.40333385 -5.11322885 95.59424462 -2.91796875 92.7265625 C-1.7915197 91.20940815 -0.66643983 89.69123589 0.45703125 88.171875 C1.21113281 87.17824951 1.21113281 87.17824951 1.98046875 86.16455078 C3.17804484 84.78402451 3.17804484 84.78402451 3.08203125 83.6015625 C-1.20796875 82.9415625 -5.49796875 82.2815625 -9.91796875 81.6015625 C-11.90541164 75.63923383 -10.9403598 70.91570706 -8.60546875 65.2265625 C-3.52069455 51.64790411 0.58233107 33.59261641 -4.91796875 19.6015625 C-6.50249394 16.60980165 -8.09408823 14.49977264 -10.91796875 12.6015625 C-29.94368955 7.0495728 -50.2056417 32.65053948 -59.89453125 46.17578125 Z M-142.734375 34.72265625 C-145.73217665 39.4815427 -147.08179628 43.71730162 -146.98828125 49.359375 C-146.97812988 50.15746582 -146.96797852 50.95555664 -146.95751953 51.77783203 C-146.94446777 52.37966309 -146.93141602 52.98149414 -146.91796875 53.6015625 C-145.16033203 53.74851562 -145.16033203 53.74851562 -143.3671875 53.8984375 C-135.11122259 54.6596881 -127.60116193 55.53490366 -119.88671875 58.796875 C-117.9638894 59.72767809 -117.9638894 59.72767809 -115.91796875 59.6015625 C-115.63824219 58.74175781 -115.35851562 57.88195313 -115.0703125 56.99609375 C-112.42808965 49.20535949 -109.36667775 42.3565897 -105.17578125 35.24609375 C-103.53725097 32.58863301 -103.53725097 32.58863301 -104.91796875 29.6015625 C-110.94835508 25.02723099 -117.2981339 23.79701728 -124.734375 24.12109375 C-132.19249853 25.24667558 -138.15898683 28.72150973 -142.734375 34.72265625 Z M41.08203125 58.6015625 C39.18481929 61.12136085 37.28952123 63.64259283 35.39453125 66.1640625 C34.86408203 66.86853516 34.33363281 67.57300781 33.78710938 68.29882812 C32.72792196 69.70891199 31.67336797 71.12248848 30.62353516 72.53955078 C29.61340827 73.89075947 28.58488592 75.22845255 27.53662109 76.55029297 C25.94253888 78.55712595 25.94253888 78.55712595 24.08203125 81.6015625 C24.57143709 85.2152086 26.20786815 87.35159217 28.39453125 90.2265625 C37.6234072 103.05602661 38.91116041 117.95940257 36.50390625 133.28125 C32.83087031 146.93826545 24.20124755 157.46263483 12.08203125 164.6015625 C8.48088493 166.24636088 4.89571641 167.54778107 1.08203125 168.6015625 C0.4595752 168.7759082 -0.16288086 168.95025391 -0.80419922 169.12988281 C-4.51438928 169.95779771 -8.25523782 169.83654055 -12.04296875 169.8515625 C-13.32131592 169.85748413 -13.32131592 169.85748413 -14.62548828 169.86352539 C-20.0995081 169.8128497 -24.80125933 169.28100829 -29.91015625 167.16015625 C-32.76661828 166.36545961 -34.13316055 166.51460257 -36.91796875 167.6015625 C-39.03652459 169.62357943 -40.67614252 171.89803343 -42.35546875 174.2890625 C-42.82662109 174.90201172 -43.29777344 175.51496094 -43.78320312 176.14648438 C-45.06758681 177.94081595 -46.11019366 179.54715799 -46.91796875 181.6015625 C-46.40047768 184.77384766 -46.40047768 184.77384766 -44.91796875 187.6015625 C-44.73878906 188.47039062 -44.55960938 189.33921875 -44.375 190.234375 C-43.60022264 193.23018078 -42.83857183 195.15142771 -40.91796875 197.6015625 C-36.03211759 199.80566261 -31.18884868 200.73611082 -25.91796875 201.6015625 C-25.13421875 201.74980469 -24.35046875 201.89804688 -23.54296875 202.05078125 C-13.78315317 203.61641833 0.67440138 204.20664908 9.08203125 198.6015625 C10.10530056 195.96432831 10.10530056 195.96432831 10.89453125 192.9140625 C13.11207313 185.88200953 15.85499003 181.53778723 22.20703125 177.7265625 C26.94212038 175.87370153 30.7157723 175.48789991 35.83203125 175.5390625 C37.58773437 175.55259766 37.58773437 175.55259766 39.37890625 175.56640625 C40.71695313 175.58380859 40.71695313 175.58380859 42.08203125 175.6015625 C42.12166992 175.02414307 42.16130859 174.44672363 42.20214844 173.85180664 C43.70999514 152.8231766 45.75208405 130.743444 60.73828125 114.58984375 C63.34744957 112.37639929 65.97398325 111.00822215 69.08203125 109.6015625 C67.08192341 91.08332265 57.97647506 72.27002597 44.08203125 59.6015625 C43.09203125 59.2715625 42.10203125 58.9415625 41.08203125 58.6015625 Z M-155.98046875 77.1640625 C-157.08254978 80.02947318 -157.02426344 80.786484 -155.91796875 83.6015625 C-153.98372498 85.74845826 -153.98372498 85.74845826 -151.54296875 87.9140625 C-143.39867742 95.78921777 -137.13469285 105.17527386 -130.91796875 114.6015625 C-128.92519217 113.61626985 -126.95341781 112.62150714 -125.015625 111.53125 C-118.42467159 108.11559276 -112.23927862 107.98300308 -104.91796875 108.6015625 C-103.92796875 108.9315625 -102.93796875 109.2615625 -101.91796875 109.6015625 C-100.92800293 100.88986331 -105.05066916 92.80469301 -110.04296875 85.8515625 C-117.02038535 77.51196045 -126.82635089 70.7915063 -137.70703125 69.19140625 C-145.61636202 68.76652485 -150.99933283 70.97537848 -155.98046875 77.1640625 Z M78.08203125 80.6015625 C78.2521875 81.18679687 78.42234375 81.77203125 78.59765625 82.375 C78.96117187 83.66277344 78.96117187 83.66277344 79.33203125 84.9765625 C79.61175781 85.9665625 79.89148438 86.9565625 80.1796875 87.9765625 C80.86271852 90.72051394 81.41515413 93.38385464 81.890625 96.1640625 C83.08244555 104.58966658 83.08244555 104.58966658 87.01171875 111.8671875 C90.19994332 113.89924272 92.28910859 114.6015625 96.08203125 114.6015625 C97.6355427 112.38220541 97.6355427 112.38220541 99.08203125 109.4765625 C101.96092565 104.30316466 105.14940052 99.67279595 108.83203125 95.0390625 C109.30382812 94.44399902 109.775625 93.84893555 110.26171875 93.23583984 C112.05566034 91.00430464 113.82403269 88.84467653 115.91015625 86.87890625 C117.40596263 85.537388 117.40596263 85.537388 117.08203125 82.7265625 C115.50052744 77.78436309 112.30066538 75.41398525 108.08203125 72.6015625 C96.51709417 69.77929345 87.58352892 74.35483318 78.08203125 80.6015625 Z M116.22705078 110.875 C112.33565168 116.74279839 108.95801363 122.97897584 105.72265625 129.2265625 C103.63793654 133.01696197 102.84180716 134.32528035 98.64453125 135.8515625 C93.58424901 135.49645497 91.07516449 133.38179287 87.36328125 130.06640625 C82.38668326 125.61694992 82.38668326 125.61694992 76.08203125 123.6015625 C70.88278591 125.42129837 67.66195875 129.92374659 65.08203125 134.6015625 C59.91833461 147.89382556 57.96729648 161.11550638 57.42285156 175.30957031 C57.26504026 179.40778352 57.05466032 183.49311985 56.68359375 187.578125 C56.61865723 188.2995166 56.5537207 189.0209082 56.48681641 189.76416016 C56.08203125 191.6015625 56.08203125 191.6015625 54.01953125 193.7890625 C48.97796097 195.18353939 44.69244153 193.1813102 39.95703125 191.4765625 C36.69331407 190.48325727 34.468326 190.09722073 31.08203125 190.6015625 C26.93201734 193.80839143 25.35812856 196.5887318 24.08203125 201.6015625 C23.83032269 204.81530326 23.84744521 208.00488623 23.89453125 211.2265625 C23.89517578 212.0721875 23.89582031 212.9178125 23.89648438 213.7890625 C23.92339868 217.58098865 24.04371857 220.93406603 25.08203125 224.6015625 C26.64050781 224.93027344 26.64050781 224.93027344 28.23046875 225.265625 C41.36633769 228.18523276 50.86330095 232.43398221 59.08203125 243.6015625 C64.37441078 251.9654123 65.4058227 260.92110319 66.08203125 270.6015625 C68.0198739 270.46035536 69.9573008 270.31343377 71.89453125 270.1640625 C73.51294922 270.04224609 73.51294922 270.04224609 75.1640625 269.91796875 C78.1419303 269.69943789 78.1419303 269.69943789 81.08203125 268.6015625 C82.12220925 266.41032514 82.12220925 266.41032514 82.8515625 263.63671875 C83.17535889 262.54875 83.49915527 261.46078125 83.83276367 260.33984375 C84.18314697 259.12683594 84.53353027 257.91382813 84.89453125 256.6640625 C85.69093905 253.9961797 86.49946796 251.33201838 87.30859375 248.66796875 C87.52539291 247.95126007 87.74219208 247.23455139 87.96556091 246.49612427 C98.26636746 212.59437865 110.32450495 179.25322025 123.76953125 146.4765625 C124.1675293 145.49864746 124.56552734 144.52073242 124.97558594 143.51318359 C125.34458008 142.63227051 125.71357422 141.75135742 126.09375 140.84375 C126.40787842 140.0894873 126.72200684 139.33522461 127.0456543 138.55810547 C128.1716043 136.4324604 129.19355205 135.0918736 131.08203125 133.6015625 C137.06916951 132.9600834 137.06916951 132.9600834 139.95703125 134.7890625 C141.40399235 137.12027761 141.77276793 138.86794796 142.08203125 141.6015625 C141.36035156 144.27929688 141.36035156 144.27929688 140.16015625 147.1953125 C139.49657104 148.83947144 139.49657104 148.83947144 138.81958008 150.5168457 C138.32868896 151.69980225 137.83779785 152.88275879 137.33203125 154.1015625 C136.82078249 155.36543223 136.31129437 156.63001542 135.8034668 157.89526367 C134.74926193 160.52090408 133.69071884 163.14471468 132.62841797 165.76708984 C125.0579932 184.49793513 118.30435069 203.49007089 111.76953125 222.6015625 C111.26167587 224.0799913 111.26167587 224.0799913 110.74356079 225.58828735 C106.09403947 239.14963852 101.88789835 252.77955185 98.08203125 266.6015625 C99.86528809 266.42898926 99.86528809 266.42898926 101.68457031 266.25292969 C102.39327271 266.18505249 103.1019751 266.11717529 103.83215332 266.04724121 C105.30680603 265.90295333 106.78026833 265.74637283 108.25292969 265.58300781 C111.79424608 265.30291377 113.65051624 265.28946045 116.56640625 267.3984375 C118.6168537 270.37898482 118.67308341 272.05524956 118.08203125 275.6015625 C114.95426487 279.71284613 112.16899085 280.29700267 107.16015625 280.98046875 C106.47663086 281.07772247 105.79310547 281.1749762 105.08886719 281.275177 C102.83863592 281.58953082 100.58600394 281.87786113 98.33203125 282.1640625 C96.74439508 282.37617774 95.15683084 282.58883203 93.56933594 282.80200195 C78.11572078 284.84279747 62.62825407 286.46177968 47.08203125 287.6015625 C46.37721619 287.65376953 45.67240112 287.70597656 44.94622803 287.75976562 C-40.03298046 293.96252275 -132.96919628 291.8269589 -243.91796875 251.6015625 C-246.08391221 250.43355373 -248.25051764 249.26677118 -250.41796875 248.1015625 C-251.91963241 247.27123083 -253.42036957 246.43920272 -254.91796875 245.6015625 C-253.88869668 281.05998545 -243.53397719 316.385714 -226.91796875 347.6015625 C-226.40492188 348.59414063 -225.891875 349.58671875 -225.36328125 350.609375 C-214.66851339 370.90052916 -199.06793252 391.34957753 -180.91796875 405.6015625 C-180.37333984 406.03146484 -179.82871094 406.46136719 -179.26757812 406.90429688 C-133.40657321 442.87277089 -76.98173444 455.87854256 -19.48046875 455.7890625 C-18.69428162 455.78812592 -17.90809448 455.78718933 -17.0980835 455.78622437 C35.9105207 455.65024303 92.46354212 445.19495981 135.08203125 411.6015625 C136.01660156 410.87582031 136.95117188 410.15007812 137.9140625 409.40234375 C149.1378519 400.45863746 159.32526022 390.99951402 168.08203125 379.6015625 C168.89285156 378.59480469 169.70367187 377.58804687 170.5390625 376.55078125 C199.37873561 340.51646806 215.75086019 291.4604055 217.08203125 245.6015625 C216.28023438 246.08625 215.4784375 246.5709375 214.65234375 247.0703125 C195.03596073 258.63552698 164.01539706 275.32361659 140.78125 273.31640625 C138.08203125 272.6015625 138.08203125 272.6015625 136.08203125 270.6015625 C135.50644389 263.3491617 135.50644389 263.3491617 137.24536133 261.09057617 C139.65707655 259.13536533 141.83313761 258.60010301 144.83203125 257.8046875 C146.56888184 257.33095703 146.56888184 257.33095703 148.34082031 256.84765625 C149.57541992 256.51894531 150.81001953 256.19023437 152.08203125 255.8515625 C163.67080219 252.6674083 174.9044688 249.00651322 186.08203125 244.6015625 C186.08203125 243.9415625 186.08203125 243.2815625 186.08203125 242.6015625 C183.95862965 241.76416469 181.83325845 240.93175967 179.70703125 240.1015625 C178.52367187 239.6375 177.3403125 239.1734375 176.12109375 238.6953125 C173.30670685 237.48868456 173.30670685 237.48868456 171.08203125 237.6015625 C170.14767944 233.93210811 169.25139387 230.31061729 170.96484375 226.78515625 C171.95279268 225.52340433 172.97279948 224.28653237 174.01171875 223.06640625 C185.38607007 209.52448987 197.57827884 191.4099778 198.45703125 173.2265625 C198.05823079 169.37149134 197.64040864 167.50105687 195.08203125 164.6015625 C189.65771412 162.23045381 184.5885461 162.50667261 178.828125 162.85546875 C175.33435195 162.96774501 173.47319194 162.88874376 170.61328125 160.7890625 C168.35544519 157.56358241 168.7049772 155.49778768 169.08203125 151.6015625 C169.53681551 149.11902457 170.04832658 146.6528463 170.5703125 144.18359375 C174.11492096 126.29820299 173.82239485 104.04848754 164.14453125 88.1015625 C160.89101859 84.15791079 158.58572148 82.83898727 153.51953125 82.0390625 C137.66765599 82.81232471 124.65161126 98.79476322 116.22705078 110.875 Z M-131.91796875 190.4765625 C-132.92007072 191.51620719 -133.91969768 192.55823881 -134.91796875 193.6015625 C-135.59472656 194.271875 -136.27148438 194.9421875 -136.96875 195.6328125 C-150.97613944 210.14824198 -158.00266571 230.11746988 -158.10546875 250.1640625 C-158.11964844 251.42347656 -158.13382812 252.68289063 -158.1484375 253.98046875 C-158.04224982 258.07982288 -158.04224982 258.07982288 -155.91796875 263.6015625 C-147.33796875 264.9215625 -138.75796875 266.2415625 -129.91796875 267.6015625 C-130.41296875 262.6515625 -130.41296875 262.6515625 -130.91796875 257.6015625 C-131.77453115 241.54101755 -127.62900044 226.01665283 -116.98046875 213.7265625 C-115.97489496 212.67015751 -114.96030038 211.62171686 -113.91796875 210.6015625 C-118.59200012 203.05008057 -123.39381683 195.56738333 -128.91796875 188.6015625 C-130.25328989 188.48757231 -130.25328989 188.48757231 -131.91796875 190.4765625 Z M-247.79296875 203.7265625 C-248.67726562 204.49226562 -249.5615625 205.25796875 -250.47265625 206.046875 C-254.16399071 209.90331707 -255.84277203 213.07256244 -256.10546875 218.4140625 C-254.86927864 225.23262688 -249.3732649 229.78430929 -244.046875 233.7265625 C-238.89381734 237.39781209 -238.89381734 237.39781209 -232.91796875 238.6015625 C-231.20688186 236.98053282 -229.54543569 235.30652787 -227.91796875 233.6015625 C-226.26367878 232.25290381 -224.59879954 230.91699529 -222.91796875 229.6015625 C-223.61921875 228.60898438 -224.32046875 227.61640625 -225.04296875 226.59375 C-231.17247523 217.84195421 -236.80264972 208.98209023 -241.91796875 199.6015625 C-244.09061766 199.6015625 -246.29578329 202.41164309 -247.79296875 203.7265625 Z M206.08203125 201.6015625 C205.50195312 202.65214844 204.921875 203.70273438 204.32421875 204.78515625 C200.17806592 212.25089767 196.02502496 219.62321844 191.08203125 226.6015625 C193.59997994 229.16355694 196.1944452 231.45438313 199.08203125 233.6015625 C199.74203125 233.6015625 200.40203125 233.6015625 201.08203125 233.6015625 C201.08203125 234.2615625 201.08203125 234.9215625 201.08203125 235.6015625 C207.92575268 233.2316519 213.11106608 228.44207113 217.20703125 222.5390625 C218.7046512 217.51133839 217.85549482 214.03390245 215.39453125 209.4765625 C212.83597927 206.29566004 210.33231413 204.05733179 207.08203125 201.6015625 C206.75203125 201.6015625 206.42203125 201.6015625 206.08203125 201.6015625 Z M-40.91796875 214.6015625 C-41.07652344 215.89707031 -41.23507813 217.19257813 -41.3984375 218.52734375 C-43.32707666 233.50658311 -45.68048745 248.86600959 -52.31640625 262.59375 C-53.14142618 265.34738794 -52.82572603 266.87829066 -51.91796875 269.6015625 C-50.38519 272.3489417 -50.38519 272.3489417 -47.91796875 274.6015625 C-44.53995452 275.2900497 -44.53995452 275.2900497 -40.74609375 275.08984375 C-39.72246735 275.07923164 -39.72246735 275.07923164 -38.67816162 275.06840515 C-36.50696314 275.04050271 -34.33838207 274.97778503 -32.16796875 274.9140625 C-30.69274569 274.88897367 -29.21748204 274.8661615 -27.7421875 274.84570312 C-24.13326971 274.79069387 -20.52587484 274.70445557 -16.91796875 274.6015625 C-16.84956787 272.91341431 -16.84956787 272.91341431 -16.77978516 271.19116211 C-16.13795231 256.59351011 -13.63017432 245.56502623 -2.48046875 235.2890625 C1.16877959 232.19029399 4.8239452 229.77590431 9.08203125 227.6015625 C8.58703125 222.1565625 8.58703125 222.1565625 8.08203125 216.6015625 C7.210625 216.67375 6.33921875 216.7459375 5.44140625 216.8203125 C-8.07638183 217.87364664 -20.52938345 217.50627297 -33.91796875 215.6015625 C-34.59005371 215.50601074 -35.26213867 215.41045898 -35.95458984 215.31201172 C-37.60921425 215.07634931 -39.2636156 214.83912162 -40.91796875 214.6015625 Z M-104.91796875 223.6015625 C-113.32465174 234.3103833 -117.02834475 245.62953191 -115.51171875 259.25 C-114.66493584 264.07335435 -114.66493584 264.07335435 -112.91796875 268.6015625 C-107.94207367 271.20760882 -102.0061584 271.26490341 -96.48046875 271.7265625 C-95.02906494 271.85393799 -95.02906494 271.85393799 -93.54833984 271.98388672 C-85.65065888 272.63428397 -77.8384794 272.82363289 -69.91796875 272.6015625 C-72.88590178 267.16510825 -76.24998209 262.21197866 -79.91796875 257.2265625 C-81.07501902 255.63990619 -82.23124865 254.05265117 -83.38671875 252.46484375 C-83.97195312 251.66127441 -84.5571875 250.85770508 -85.16015625 250.02978516 C-88.43976045 245.49937636 -91.65347193 240.92265997 -94.87109375 236.34814453 C-95.77777321 235.05911885 -96.68528556 233.77067847 -97.59375 232.48291016 C-98.51204771 231.17826374 -99.4258036 229.87041322 -100.3359375 228.56005859 C-101.50553556 226.88986251 -102.70858211 225.24317712 -103.91796875 223.6015625 C-104.24796875 223.6015625 -104.57796875 223.6015625 -104.91796875 223.6015625 Z M4.51953125 249.6328125 C-0.78146549 256.89287325 -1.76496634 263.70114525 -0.91796875 272.6015625 C-0.58796875 273.2615625 -0.25796875 273.9215625 0.08203125 274.6015625 C4.36477758 274.48110179 8.64739144 274.35678079 12.92993164 274.22924805 C14.37944685 274.18658235 15.82899075 274.1448779 17.27856445 274.10424805 C25.00699093 273.8869615 32.73338491 273.62313157 40.453125 273.19140625 C41.65767334 273.12687256 42.86222168 273.06233887 44.10327148 272.99584961 C47.26107761 272.80049657 47.26107761 272.80049657 50.08203125 270.6015625 C51.60121784 264.12791153 49.3369399 258.13086383 46.08203125 252.6015625 C41.63399338 245.9295057 35.9066852 242.27939411 28.08203125 240.6015625 C19.16741006 239.69190728 10.45135188 242.90247756 4.51953125 249.6328125 Z M-134.91796875 451.6015625 C-135.02580275 454.54003903 -135.10518791 457.47457401 -135.16796875 460.4140625 C-135.20148438 461.24744141 -135.235 462.08082031 -135.26953125 462.93945312 C-135.28242188 463.74189453 -135.2953125 464.54433594 -135.30859375 465.37109375 C-135.32954102 466.10948486 -135.35048828 466.84787598 -135.37207031 467.60864258 C-135.07731293 469.7612441 -135.07731293 469.7612441 -133.15454102 471.25146484 C-80.90869596 502.78945449 1.48107126 498.07347965 58.08203125 484.6015625 C79.05407719 479.97219277 79.05407719 479.97219277 97.08203125 469.6015625 C97.35857513 467.66475114 97.35857513 467.66475114 97.27734375 465.46875 C97.27089844 464.66308594 97.26445312 463.85742188 97.2578125 463.02734375 C97.24105469 462.18558594 97.22429687 461.34382813 97.20703125 460.4765625 C97.19800781 459.62707031 97.18898438 458.77757812 97.1796875 457.90234375 C97.15608772 455.80196366 97.12021608 453.70172806 97.08203125 451.6015625 C92.08731443 453.07538058 87.1082596 454.57867029 82.1640625 456.21484375 C60.52855814 463.26322585 37.79634301 467.93603477 15.08203125 469.6015625 C14.03063965 469.68623779 12.97924805 469.77091309 11.89599609 469.8581543 C1.82421716 470.61283335 -8.19670161 470.80387272 -18.29296875 470.7890625 C-19.12489746 470.78812592 -19.95682617 470.78718933 -20.81396484 470.78622437 C-58.11566361 470.69571656 -95.56821384 465.9230647 -130.57421875 452.44921875 C-132.8160435 451.48819364 -132.8160435 451.48819364 -134.91796875 451.6015625 Z " fill="#000000" transform="translate(274.91796875,3.3984375)"/>
</svg>
